<svg width="16" height="14" viewBox="0 0 16 14" fill="none" xmlns="http://www.w3.org/2000/svg">
<path fill-rule="evenodd" clip-rule="evenodd" d="M7.99959 12.2719C4.93355 10.5256 3.22351 8.78992 2.3966 7.28398C1.55026 5.74265 1.6241 4.44446 2.09374 3.5231C3.05905 1.62928 5.80412 1.02369 7.47663 3.13902L7.99955 3.80038L8.52251 3.13905C10.1953 1.02364 12.9405 1.62932 13.9058 3.5231C14.3755 4.44445 14.4493 5.74263 13.6029 7.28396C12.7759 8.78991 11.0658 10.5256 7.99959 12.2719ZM7.99961 1.73763C5.64681 -0.498115 2.17588 0.425912 0.905824 2.9176C0.208796 4.28507 0.199274 6.05249 1.22787 7.92572C2.24733 9.78234 4.27994 11.7421 7.67709 13.6197L7.99958 13.798L8.32207 13.6197C11.7193 11.7421 13.752 9.78236 14.7716 7.92574C15.8002 6.05251 15.7908 4.28508 15.0937 2.9176C13.8237 0.425864 10.3526 -0.498082 7.99961 1.73763Z" fill="#FF5A30"/>
</svg>
