
<svg width="40" height="40" viewBox="0 0 40 40" fill="none" xmlns="http://www.w3.org/2000/svg">
<path fill-rule="evenodd" clip-rule="evenodd" d="M14.1667 4.86971C12.7859 4.86971 11.6667 5.989 11.6667 7.36971V32.6301C11.6667 34.0108 12.7859 35.1301 14.1667 35.1301H25.8333C27.214 35.1301 28.3333 34.0108 28.3333 32.6301V7.36971C28.3333 5.989 27.214 4.86971 25.8333 4.86971H25.6944L25.2884 5.8438C25.0296 6.46482 24.4228 6.86934 23.75 6.86934H16.25C15.5772 6.86934 14.9704 6.46482 14.7116 5.8438L14.3056 4.86971H14.1667ZM8.33333 7.36971C8.33333 4.14805 10.945 1.53638 14.1667 1.53638H25.8333C29.055 1.53638 31.6667 4.14805 31.6667 7.36971V32.6301C31.6667 35.8518 29.055 38.4635 25.8333 38.4635H14.1667C10.945 38.4635 8.33333 35.8518 8.33333 32.6301V7.36971Z" fill="#FF5A30"/>
</svg>
