<svg width="142" height="24" viewBox="0 0 142 24" fill="none" xmlns="http://www.w3.org/2000/svg">
<g clip-path="url(#clip0_200_68)">
<path d="M-0.000183105 12.1091C-0.000183105 5.45452 3.60443 1.41815 9.50289 1.41815C13.9814 1.41815 17.586 4.14542 18.2414 8.18179C18.3506 8.61815 18.0229 8.94543 17.586 8.94543H14.746C14.4183 8.94543 14.1998 8.72724 14.0906 8.39997C13.5444 6.32724 11.7967 5.01815 9.50289 5.01815C6.3352 5.01815 4.36905 7.74543 4.36905 12.1091C4.36905 16.4727 6.3352 19.2 9.61212 19.2C11.906 19.2 13.5444 18 14.1998 16.0363C14.309 15.7091 14.5275 15.4909 14.8552 15.4909H17.6952C18.1321 15.4909 18.4598 15.9272 18.3506 16.2545C17.6952 20.1818 14.1998 22.8 9.61212 22.8C3.60443 22.8 -0.000183105 18.6545 -0.000183105 12.1091Z" fill="white"/>
<path d="M26.5426 22.2548H23.3749C23.0472 22.2548 22.8287 22.0366 22.8287 21.7093V2.83661C22.8287 2.40025 23.2657 1.96389 23.7026 1.96389H31.3487C35.8272 1.96389 38.558 4.47298 38.558 8.40025C38.558 10.6912 37.4657 12.7639 35.6087 13.8548C35.1718 14.073 35.0626 14.6184 35.2811 14.9457L38.6672 21.3821C38.8857 21.7093 38.558 22.1457 38.2303 22.1457H34.6257C34.4072 22.1457 34.1887 22.0366 34.0795 21.8184L30.9118 15.273C30.8026 14.9457 30.4749 14.8366 30.1472 14.8366H27.6349C27.3072 14.8366 27.0887 15.0548 27.0887 15.3821V21.8184C27.198 22.0366 26.8703 22.2548 26.5426 22.2548ZM27.198 11.1275C27.198 11.4548 27.4164 11.673 27.7441 11.673H31.0211C33.2057 11.673 34.4072 10.473 34.4072 8.50934C34.4072 6.5457 33.0964 5.3457 31.0211 5.3457H27.8534C27.5257 5.3457 27.3072 5.56389 27.3072 5.89116V11.1275H27.198Z" fill="white"/>
<path d="M56.2535 22.2548H44.2381C43.8012 22.2548 43.4735 21.9275 43.4735 21.4912V2.72752C43.4735 2.29116 43.8012 1.96389 44.2381 1.96389H56.2535C56.6904 1.96389 57.0181 2.29116 57.0181 2.72752V4.80025C57.0181 5.23661 56.6904 5.56389 56.2535 5.56389H48.2797C47.952 5.56389 47.7335 5.78207 47.7335 6.10934V9.81843C47.7335 10.1457 47.952 10.3639 48.2797 10.3639H55.7073C56.1443 10.3639 56.472 10.6912 56.472 11.1275V12.9821C56.472 13.4184 56.1443 13.7457 55.7073 13.7457H48.2797C47.952 13.7457 47.7335 13.9639 47.7335 14.2912V18.4366C47.7335 18.7639 47.952 18.9821 48.2797 18.9821H56.2535C56.6904 18.9821 57.0181 19.3093 57.0181 19.7457V21.8184C57.0181 21.9275 56.6904 22.2548 56.2535 22.2548Z" fill="white"/>
<path d="M73.1844 17.3457H66.9582C66.6305 17.3457 66.4121 17.5639 66.3028 17.7821L65.1013 21.8184C64.9921 22.1457 64.7736 22.2548 64.4459 22.2548H61.6059C61.169 22.2548 60.8413 21.8184 60.9505 21.3821L67.5044 2.40025C67.6136 2.18207 67.8321 1.96389 68.1598 1.96389H72.2013C72.529 1.96389 72.7475 2.18207 72.8567 2.40025L79.4105 21.3821C79.5198 21.8184 79.1921 22.2548 78.7551 22.2548H75.5875C75.2598 22.2548 75.0413 22.0366 74.9321 21.8184L73.7305 17.7821C73.7305 17.5639 73.4028 17.3457 73.1844 17.3457ZM67.8321 14.1821H72.3105C72.529 14.1821 72.6382 13.9639 72.6382 13.7457L70.2352 6.10934H70.0167L67.6136 13.7457C67.5044 13.9639 67.6136 14.1821 67.8321 14.1821Z" fill="white"/>
<path d="M86.2923 21.4916V6.00068C86.2923 5.6734 86.0738 5.45522 85.7461 5.45522H80.94C80.5031 5.45522 80.0662 5.12795 80.0662 4.58249V2.72795C80.0662 2.29158 80.3938 1.85522 80.94 1.85522H95.7953C96.2323 1.85522 96.6692 2.18249 96.6692 2.72795V4.58249C96.6692 5.01886 96.3415 5.45522 95.7953 5.45522H90.9892C90.6615 5.45522 90.4431 5.6734 90.4431 6.00068V21.6007C90.4431 22.037 90.1154 22.3643 89.6784 22.3643H86.9477C86.62 22.2552 86.2923 21.928 86.2923 21.4916Z" fill="white"/>
<path d="M113.381 22.2548H101.366C100.929 22.2548 100.601 21.9275 100.601 21.4912V2.72752C100.601 2.29116 100.929 1.96389 101.366 1.96389H113.381C113.818 1.96389 114.146 2.29116 114.146 2.72752V4.80025C114.146 5.23661 113.818 5.56389 113.381 5.56389H105.407C105.08 5.56389 104.861 5.78207 104.861 6.10934V9.81843C104.861 10.1457 105.08 10.3639 105.407 10.3639H112.835C113.272 10.3639 113.6 10.6912 113.6 11.1275V12.9821C113.6 13.4184 113.272 13.7457 112.835 13.7457H105.407C105.08 13.7457 104.861 13.9639 104.861 14.2912V18.4366C104.861 18.7639 105.08 18.9821 105.407 18.9821H113.381C113.818 18.9821 114.146 19.3093 114.146 19.7457V21.8184C114.146 21.9275 113.818 22.2548 113.381 22.2548Z" fill="white"/>
<path d="M128.564 10.5823L121.792 1.74592C121.355 1.30955 120.809 1.09137 120.263 1.09137C119.717 1.09137 119.171 1.30955 118.734 1.74592C117.969 2.61864 117.969 3.92773 118.734 4.80046L124.086 12.0005L118.734 19.2005C117.969 20.0732 117.969 21.3823 118.734 22.255C119.171 22.6914 119.717 22.9096 120.263 22.9096C120.809 22.9096 121.355 22.6914 121.792 22.255L128.564 13.4186C129.329 12.7641 129.329 11.455 128.564 10.5823Z" fill="#FF5A30"/>
<path d="M131.451 10.5823L138.224 1.74592C138.66 1.30955 139.207 1.09137 139.753 1.09137C140.299 1.09137 140.845 1.30955 141.282 1.74592C142.047 2.61864 142.047 3.92773 141.282 4.80046L135.93 12.0005L141.282 19.2005C142.047 20.0732 142.047 21.3823 141.282 22.255C140.845 22.6914 140.299 22.9096 139.753 22.9096C139.207 22.9096 138.66 22.6914 138.224 22.255L131.451 13.4186C130.687 12.7641 130.687 11.455 131.451 10.5823Z" fill="#FF5A30"/>
</g>
<defs>
<clipPath id="clip0_200_68">
<rect width="142" height="24" fill="white"/>
</clipPath>
</defs>
</svg>
