<svg width="24" height="24" viewBox="0 0 24 24" fill="none" xmlns="http://www.w3.org/2000/svg">
<g opacity="0.6">
<path d="M22.5 5.77252C21.7271 6.10045 20.8978 6.32285 20.0264 6.42215C20.9161 5.91199 21.5972 5.10281 21.92 4.14158C21.0854 4.61402 20.1642 4.95706 19.1826 5.14303C18.3966 4.34013 17.2785 3.84003 16.0384 3.84003C13.6593 3.84003 11.7303 5.68709 11.7303 7.96388C11.7303 8.28679 11.7683 8.60217 11.8418 8.90376C8.26201 8.73159 5.08768 7.08935 2.96314 4.59391C2.59176 5.20207 2.38049 5.91071 2.38049 6.66715C2.38049 8.09833 3.14161 9.36111 4.2964 10.0999C3.5904 10.0773 2.92639 9.89134 2.34508 9.58223V9.63375C2.34508 11.6316 3.83056 13.299 5.80024 13.6785C5.43936 13.7714 5.05882 13.823 4.66514 13.823C4.38696 13.823 4.11794 13.7966 3.85417 13.7463C4.40267 15.386 5.99315 16.5785 7.87756 16.6111C6.40388 17.7169 4.54573 18.374 2.52749 18.374C2.17976 18.374 1.83724 18.3539 1.5 18.3175C3.40671 19.4898 5.67036 20.1734 8.10327 20.1734C16.028 20.1734 20.3597 13.8883 20.3597 8.4376L20.3453 7.90359C21.1917 7.32555 21.9239 6.59931 22.5 5.77252Z" fill="white"/>
</g>
</svg>
